<svg xmlns="http://www.w3.org/2000/svg" viewBox="0 0 760 72" role="img" aria-label="Decorative green vine divider">
  <defs>
    <style>
      .vine { fill: none; stroke: #26351f; stroke-width: 5; stroke-linecap: round; stroke-linejoin: round; }
      .stem { fill: none; stroke: #5f7645; stroke-width: 3.2; stroke-linecap: round; stroke-linejoin: round; }
      .gold { fill: #c69a3e; stroke: #5f3e18; stroke-width: 1.8; }
      .leaf { fill: #5f7645; stroke: #26351f; stroke-width: 1.8; }
      .blush { fill: #dfc1ad; stroke: #5f3e18; stroke-width: 1.6; }
    </style>
  </defs>
  <path class="vine" d="M32 36h238c36 0 45-26 24-30-19-3-34 18-13 31 24 15 62 15 86-1 16-11 28-11 44 0 24 16 62 16 86 1 21-13 6-34-13-31-21 4-12 30 24 30h220"/>
  <path class="stem" d="M112 36c22-18 44-22 67-11M196 36c-21 15-40 18-58 8M564 36c22-18 44-22 67-11M648 36c-21 15-40 18-58 8"/>
  <path class="leaf" d="M128 27c-17-12-30-12-39 0 10 13 24 14 40 3z"/>
  <path class="leaf" d="M165 24c19-8 33-6 42 6-13 11-27 10-43-3z"/>
  <path class="leaf" d="M595 27c-17-12-30-12-39 0 10 13 24 14 40 3z"/>
  <path class="leaf" d="M632 24c19-8 33-6 42 6-13 11-27 10-43-3z"/>
  <circle class="gold" cx="380" cy="36" r="9"/>
  <circle class="blush" cx="350" cy="36" r="5"/>
  <circle class="blush" cx="410" cy="36" r="5"/>
  <circle class="gold" cx="28" cy="36" r="5"/>
  <circle class="gold" cx="732" cy="36" r="5"/>
</svg>
