<svg xmlns="http://www.w3.org/2000/svg" viewBox="0 0 120 120">
  <defs>
    <style>
      .line { fill: none; stroke: #26351f; stroke-width: 5.8; stroke-linecap: round; stroke-linejoin: round; }
      .fine { fill: none; stroke: #8b642b; stroke-width: 2.8; stroke-linecap: round; stroke-linejoin: round; }
      .vine { fill: none; stroke: #3e5a31; stroke-width: 3.2; stroke-linecap: round; stroke-linejoin: round; }
      .dot { fill: #c69a3e; stroke: #654318; stroke-width: 2; }
      .leaf { fill: #5f7645; stroke: #26351f; stroke-width: 2; opacity: .95; }
    </style>
  </defs>

  <rect x="7" y="7" width="106" height="106" rx="5" class="fine"/>
  <rect x="18" y="18" width="84" height="84" rx="3" class="fine"/>

  <path class="line" d="M20 52V20h32"/>
  <path class="line" d="M68 20h32v32"/>
  <path class="line" d="M100 68v32H68"/>
  <path class="line" d="M52 100H20V68"/>

  <path class="fine" d="M34 51c16-4 21-13 13-27"/>
  <path class="fine" d="M86 51c-16-4-21-13-13-27"/>
  <path class="fine" d="M86 69c-16 4-21 13-13 27"/>
  <path class="fine" d="M34 69c16 4 21 13 13 27"/>
  <path class="vine" d="M34 60c17-9 35-9 52 0"/>
  <path class="vine" d="M60 34c9 17 9 35 0 52"/>

  <path class="leaf" d="M31 31c-10-7-18-6-23 1 6 8 14 9 24 2z"/>
  <path class="leaf" d="M89 31c10-7 18-6 23 1-6 8-14 9-24 2z"/>
  <path class="leaf" d="M89 89c10 7 18 6 23-1-6-8-14-9-24-2z"/>
  <path class="leaf" d="M31 89c-10 7-18 6-23-1 6-8 14-9 24-2z"/>

  <circle class="dot" cx="60" cy="17" r="3"/>
  <circle class="dot" cx="103" cy="60" r="3"/>
  <circle class="dot" cx="60" cy="103" r="3"/>
  <circle class="dot" cx="17" cy="60" r="3"/>
</svg>
