<svg width="235" height="34" viewBox="0 0 235 34" fill="none" xmlns="http://www.w3.org/2000/svg">
<g clip-path="url(#clip0_24_2384)">
<path d="M24.6649 22.3675L7.37354 32.3502V26.5865L24.6649 16.6016V22.3675Z" fill="url(#paint0_linear_24_2384)"/>
<path d="M7.37354 12.3829L24.6649 22.3678V16.6019L7.37354 6.61914V12.3829Z" fill="url(#paint1_linear_24_2384)"/>
<path d="M0.0649414 16.6017L17.3563 26.5866V20.8207L0.0649414 10.8379V16.6017Z" fill="url(#paint2_linear_24_2384)"/>
<path d="M17.3563 6.61926L0.0649414 16.602V10.8382L17.3563 0.855469V6.61926Z" fill="#FF00D2"/>
<path d="M69.4671 9.50273C68.8648 9.50273 68.3445 9.2833 67.9079 8.84653C67.4712 8.40976 67.2515 7.88934 67.2515 7.28746C67.2515 6.68558 67.4667 6.17144 67.8997 5.74303C68.3322 5.31672 68.8546 5.10352 69.4671 5.10352C70.0792 5.10352 70.627 5.31462 71.0489 5.73676C71.4712 6.15894 71.6823 6.67513 71.6823 7.28955C71.6823 7.90398 71.4691 8.42435 71.0427 8.85698C70.6163 9.28957 70.0919 9.50482 69.4692 9.50482L69.4671 9.50273ZM67.584 26.828V11.4317H71.3498V26.828H67.584Z" fill="white"/>
<path d="M79.7262 11.4317V5.10352H75.9895V11.4317H73.7451V14.7317H75.9895V26.828H79.7262V14.7317H81.9582V11.4317H79.7262Z" fill="white"/>
<path d="M40.8691 20.3956C40.5222 19.7728 39.9809 19.2252 39.2411 18.7529C38.5034 18.2806 37.5399 17.8605 36.357 17.4864C35.1616 17.0935 34.3465 16.7529 33.9098 16.4624C33.473 16.1719 33.2535 15.8396 33.2535 15.4676C33.2535 15.0956 33.4395 14.7821 33.8115 14.5564C34.1835 14.3307 34.6747 14.2179 35.2891 14.2179C36.495 14.2179 37.5483 14.6755 38.4532 15.5888L40.9088 13.5553C40.2254 12.7424 39.4104 12.1238 38.4616 11.7016C37.5127 11.2795 36.4762 11.0684 35.3497 11.0684C33.7029 11.0684 32.3674 11.4613 31.3413 12.2513C30.3151 13.0412 29.8052 14.0674 29.8052 15.3317C29.8052 16.4666 30.1668 17.4029 30.8899 18.1406C31.613 18.8783 32.8377 19.5638 34.566 20.197C35.4584 20.5189 36.1522 20.8031 36.6455 21.0476C37.1386 21.2921 37.4814 21.5346 37.6778 21.7707C37.8743 22.0069 37.9725 22.2744 37.9725 22.5774C37.9725 23.0393 37.7677 23.3987 37.356 23.6537C36.9443 23.9087 36.357 24.0383 35.5921 24.0383C34.9798 24.0383 34.3361 23.8794 33.6632 23.5638C33.17 23.3319 32.7185 23.0372 32.3131 22.684L29.4165 24.3559C30.0581 25.2191 30.9296 25.9066 32.0289 26.4186C33.1282 26.9306 34.2818 27.1877 35.4856 27.1877C37.3247 27.1877 38.7667 26.776 39.8158 25.9526C40.8649 25.1292 41.3894 23.9943 41.3894 22.5482C41.3894 21.7352 41.216 21.0163 40.8691 20.3935V20.3956Z" fill="white"/>
<path d="M59.8408 26.828H63.6071V5.10352L59.8408 7.2791V26.828Z" fill="white"/>
<path d="M56.5431 14.8216C56.031 13.6158 55.2975 12.69 54.3422 12.0421C53.3873 11.3942 52.2524 11.0703 50.938 11.0703C49.523 11.0703 48.3923 11.5677 47.5481 12.5604V11.4319H43.7822V33.1542L47.5481 30.9807V25.6682C47.9495 26.1698 48.432 26.5501 48.9941 26.8051C49.5563 27.0601 50.1897 27.1896 50.892 27.1896C52.177 27.1896 53.3016 26.8553 54.2672 26.1886C55.2307 25.5198 55.9785 24.5815 56.5115 23.3714C57.0424 22.1613 57.3098 20.7486 57.3098 19.131C57.3098 17.5134 57.0552 16.0275 56.5431 14.8237V14.8216ZM52.7018 22.4226C52.1479 23.2 51.3623 23.5909 50.3361 23.5909C49.7424 23.5909 49.1991 23.4696 48.7018 23.2293C48.2045 22.989 47.8199 22.6525 47.5501 22.2199V15.9983C47.8802 15.5469 48.2754 15.2104 48.733 14.9888C49.1905 14.7673 49.7235 14.6586 50.3381 14.6586C51.3414 14.6586 52.1249 15.0515 52.6891 15.8332C53.2512 16.6169 53.5337 17.7162 53.5337 19.131C53.5337 20.5459 53.2577 21.6452 52.7038 22.4226H52.7018Z" fill="white"/>
<mask id="mask0_24_2384" style="mask-type:luminance" maskUnits="userSpaceOnUse" x="87" y="2" width="148" height="29">
<path d="M234.995 2.03516H87.395V30.7352H234.995V2.03516Z" fill="white"/>
</mask>
<g mask="url(#mask0_24_2384)">
<path d="M88.5311 18.2916V19.0294H87.395V12.6953H88.5647V15.2094C88.8062 14.7312 89.215 14.4202 89.9862 14.4202C91.2252 14.4202 92.215 15.487 92.215 16.7878C92.215 18.0885 91.2252 19.1373 89.9862 19.1373C89.1789 19.1373 88.773 18.798 88.5287 18.2864L88.5311 18.2916ZM89.7984 18.0834C90.5442 18.0834 91.0477 17.4664 91.0477 16.7826C91.0477 16.0988 90.5442 15.4819 89.7984 15.4819C89.0531 15.4819 88.5311 16.0886 88.5311 16.7929C88.5311 17.4973 89.0248 18.086 89.7984 18.086V18.0834Z" fill="white"/>
<path d="M92.495 20.7533L92.6672 19.6351C92.8398 19.6788 93.0067 19.6968 93.1969 19.6968C93.6467 19.6968 93.9349 19.4114 94.0632 19.0104L94.1247 18.8202L92.3384 14.5195H93.7521L94.6286 17.0953C94.7057 17.3113 94.7754 17.5812 94.8189 17.8151C94.8627 17.5812 94.932 17.3113 95.0091 17.0953L95.8857 14.5195H97.274L95.2793 19.3164C94.896 20.2264 94.333 20.8433 93.2765 20.8433C93.0428 20.8433 92.7291 20.8253 92.495 20.7559V20.7533Z" fill="white"/>
<path d="M128.178 11.711L121.103 4.57494C120.255 3.78204 119.262 3.15862 118.161 2.78941C115.728 1.96625 113.319 2.61994 111.364 4.57494L104.288 11.711C103.495 12.5584 102.902 13.551 102.503 14.6526C101.68 17.0857 102.333 19.5189 104.288 21.4739L111.394 28.61C112.242 29.4028 113.234 30.0263 114.311 30.3955C114.965 30.6194 115.673 30.7344 116.375 30.7344C118.076 30.7344 119.716 29.996 121.103 28.61L128.208 21.4739C129.001 20.6265 129.594 19.6339 129.994 18.5323C130.756 16.0991 130.133 13.6902 128.184 11.711H128.178ZM116.769 6.63887C117.308 6.80837 117.786 7.09282 118.215 7.46203L120.31 9.58653L116.23 13.7205L112.151 9.58653L114.245 7.46203C114.814 6.89311 115.607 6.29993 116.763 6.63887H116.769ZM106.352 16.0386C106.522 15.4999 106.806 14.9915 107.175 14.5678L109.27 12.4434L113.373 16.6076L109.27 20.7113L107.175 18.5868C106.607 18.0178 106.013 17.225 106.352 16.0386ZM115.698 26.546C115.159 26.3765 114.681 26.092 114.251 25.7228L112.157 23.6286L116.236 19.5249L120.316 23.6286L118.221 25.7531C117.652 26.322 116.859 26.9152 115.704 26.546H115.698ZM126.138 17.1705C125.969 17.7092 125.684 18.2176 125.315 18.6413L123.221 20.7355L119.117 16.6015L123.197 12.4978L125.291 14.6223C125.884 15.161 126.477 15.9841 126.138 17.1705Z" fill="#00ADE4"/>
<path d="M143.497 26.6543H147.178V16.4374C147.178 13.2961 145.283 10.9477 142.027 10.9477C140.441 10.9477 138.74 11.6558 137.862 12.9572V5.36719H134.213V26.6543H137.838V18.5861C137.838 16.6916 138.77 14.3372 140.98 14.3372C142.904 14.3372 143.497 15.4145 143.497 17.194V26.6482V26.6543ZM158.302 20.5956C158.302 22.829 156.717 24.0759 154.453 24.0759C153.321 24.0759 152.304 23.3374 152.304 22.1814C152.304 21.0253 153.382 20.2869 154.483 20.2022L158.302 19.9177V20.5956ZM161.359 26.9085C161.982 26.9388 162.606 26.7935 163.169 26.5151V23.8277C163.029 23.858 162.86 23.8822 162.714 23.8822C162.091 23.8822 161.867 23.628 161.867 22.9198V17.2606C161.922 16.2135 161.752 15.1664 161.443 14.204C160.566 11.9101 158.357 11.1172 155.784 11.1172C152.413 11.1172 149.695 12.6485 149.502 16.0743H153.012C153.097 14.658 154.09 13.9256 155.784 13.9256C157.848 13.9256 158.332 14.888 158.332 16.3345V17.2667L153.89 17.5753C151.003 17.7751 148.763 19.4456 148.763 22.3327C148.763 24.8264 150.633 27.0901 154.229 27.0901C156.377 27.0901 158.133 26.043 158.817 24.7961C158.901 25.8977 159.779 26.8903 161.365 26.9206L161.359 26.9085ZM172.768 14.7064C172.968 14.7064 173.161 14.7064 173.337 14.7366V11.2806C173.167 11.2806 173.028 11.2503 172.883 11.2503C171.097 11.2503 169.318 11.9888 168.61 13.744L168.301 11.4501H165.214V26.6543H168.864V19.0098C168.864 16.5464 170.196 14.7064 172.768 14.7064ZM184.232 26.6543H187.857V16.5222C187.857 13.3506 185.963 11.0869 182.731 11.0869C181.006 11.0869 179.19 11.8253 178.288 13.4111L178.034 11.4561H175.007V26.6603H178.633V20.4624C178.633 19.1914 178.603 17.6056 179.142 16.3829C179.626 15.2814 180.473 14.4582 181.744 14.4582C183.669 14.4582 184.238 15.5356 184.238 17.3151V26.6543H184.232ZM199.799 17.539H193.262C193.232 16.6916 193.517 15.8382 194.055 15.1603C194.364 14.7911 194.733 14.4824 195.187 14.2827C195.641 14.083 196.095 13.974 196.603 13.9982C197.027 13.968 197.45 14.0527 197.85 14.198C198.25 14.3432 198.613 14.5914 198.897 14.8759C199.436 15.5295 199.775 16.4072 199.805 17.539H199.799ZM203.425 19.1793C203.479 17.2848 203.225 15.5538 202.123 13.8832C200.876 11.9888 198.837 11.0809 196.603 11.0809C195.695 11.0506 194.818 11.2201 194.001 11.5348C193.177 11.8738 192.415 12.358 191.791 13.0056C190.345 14.5067 189.613 16.6553 189.613 19.0946C189.613 21.5337 190.436 23.7067 191.937 25.1835C192.56 25.8069 193.323 26.2851 194.146 26.5998C194.969 26.9145 195.847 27.084 196.724 27.0538C198.649 27.0538 200.519 26.4303 201.821 24.9293C202.39 24.2211 203.007 23.0348 203.092 22.1269H199.612C199.496 22.6111 199.242 23.059 198.873 23.398C198.365 23.9367 197.711 24.1364 196.664 24.1364C195.817 24.1364 195.024 23.7974 194.43 23.2043C194.061 22.8108 193.753 22.3266 193.583 21.8182C193.383 21.3098 193.298 20.7711 193.329 20.2022H203.437C203.407 19.8935 203.437 19.1853 203.437 19.1853L203.425 19.1793ZM208.297 15.699C208.297 15.3298 208.412 14.9909 208.636 14.7064C208.836 14.4219 209.144 14.198 209.459 14.083C209.967 13.8832 210.506 13.8288 211.014 13.859C211.753 13.8288 212.431 14.083 212.994 14.5672C213.363 14.9364 213.587 15.4751 213.587 16.0137H217.043C216.989 14.8516 216.535 13.7198 215.711 12.8724C214.61 11.6861 212.77 11.0869 210.984 11.0869C209.09 11.0869 207.504 11.6558 206.396 12.6182C205.888 13.0419 205.519 13.5503 205.234 14.1496C204.98 14.7427 204.841 15.3964 204.865 16.044C204.865 17.9687 206.251 19.6695 208.321 20.1235C209.653 20.408 211.178 20.4927 212.51 20.7166C213.442 20.8558 214.011 21.4551 214.011 22.3327C214.011 24.0032 212.14 24.2574 210.924 24.2574C209.877 24.2574 209.199 24.0577 208.63 23.5796C208.236 23.2103 207.952 22.7322 207.867 22.1935H204.441C204.581 23.3798 205.149 24.5177 206.027 25.3348C207.274 26.5211 208.999 27.0901 210.924 27.0901C212.988 27.0901 214.888 26.5514 216.105 25.3348C216.529 24.9111 216.868 24.3724 217.098 23.8035C217.322 23.2345 217.436 22.6172 217.406 21.9938C217.406 19.5848 215.681 18.0898 213.272 17.6904C211.801 17.4664 211.402 17.4361 210.046 17.2667C209.253 17.1274 208.321 16.7824 208.291 15.7111L208.297 15.699ZM227.574 15.9835H231.031C230.976 14.8214 230.522 13.6895 229.699 12.8422C228.597 11.6558 226.757 11.0566 224.972 11.0566C223.078 11.0566 221.492 11.6256 220.384 12.588C219.876 13.0116 219.506 13.5201 219.222 14.1193C218.968 14.7124 218.829 15.3661 218.853 16.0137C218.853 17.9385 220.239 19.6393 222.309 20.0932C223.64 20.3777 225.166 20.4624 226.497 20.6864C227.429 20.8256 227.998 21.4248 227.998 22.3024C227.998 23.9729 226.128 24.2272 224.911 24.2272C223.864 24.2272 223.187 24.0274 222.617 23.5493C222.224 23.1801 221.94 22.7019 221.855 22.1632H218.429C218.568 23.3495 219.137 24.4875 220.015 25.3045C221.262 26.4909 222.986 27.0598 224.881 27.0598C226.945 27.0598 228.846 26.5211 230.062 25.3045C230.486 24.8809 230.825 24.3422 231.055 23.7732C231.279 23.2043 231.394 22.5869 231.364 21.9635C231.364 19.5545 229.638 18.0596 227.23 17.6601C225.759 17.4361 225.359 17.4059 224.004 17.2364C223.18 17.1214 222.278 16.7824 222.278 15.7051C222.278 15.3358 222.394 14.9969 222.617 14.7124C222.817 14.428 223.126 14.204 223.441 14.089C223.949 13.8893 224.488 13.8348 224.996 13.8651C225.704 13.8348 226.412 14.089 226.975 14.5732C227.314 14.9425 227.544 15.4509 227.569 15.9895" fill="white"/>
<path d="M234.967 9.94213C234.967 10.967 234.172 11.7658 233.131 11.7658C232.089 11.7658 231.277 10.9702 231.277 9.94213C231.277 8.91405 232.106 8.13477 233.131 8.13477C234.172 8.15117 234.967 8.94677 234.967 9.94213ZM231.736 9.94213C231.736 10.7377 232.331 11.3828 233.144 11.3828C233.955 11.3828 234.522 10.741 234.522 9.95849C234.522 9.17596 233.939 8.50475 233.144 8.50475C232.315 8.52115 231.736 9.16288 231.736 9.94541V9.94213ZM232.839 10.8916H232.427V9.10064C232.593 9.07121 232.826 9.03845 233.114 9.03845C233.451 9.03845 233.605 9.10064 233.743 9.17596C233.835 9.25128 233.91 9.38879 233.91 9.57542C233.91 9.77514 233.756 9.92905 233.543 9.98797V10.0043C233.71 10.0666 233.818 10.2041 233.88 10.4496C233.942 10.7247 233.972 10.8327 234.018 10.8949H233.573C233.51 10.8327 233.481 10.6657 233.435 10.4496C233.405 10.2499 233.297 10.1582 233.068 10.1582H232.869V10.8949H232.839V10.8916ZM232.852 9.86681H233.052C233.281 9.86681 233.464 9.79154 233.464 9.6049C233.464 9.43791 233.343 9.32988 233.081 9.32988C232.973 9.32988 232.898 9.34623 232.852 9.34623V9.86681Z" fill="white"/>
</g>
</g>
<defs>
<linearGradient id="paint0_linear_24_2384" x1="10.4483" y1="34.1252" x2="21.5902" y2="14.8266" gradientUnits="userSpaceOnUse">
<stop offset="0.5" stop-color="#0075FF"/>
<stop offset="1" stop-color="#0A0A32"/>
</linearGradient>
<linearGradient id="paint1_linear_24_2384" x1="21.5902" y1="24.1427" x2="10.4483" y2="4.84418" gradientUnits="userSpaceOnUse">
<stop offset="0.5" stop-color="#00ADF2"/>
<stop offset="1" stop-color="#0A0A32"/>
</linearGradient>
<linearGradient id="paint2_linear_24_2384" x1="14.2816" y1="28.3615" x2="3.13967" y2="9.06292" gradientUnits="userSpaceOnUse">
<stop offset="0.5" stop-color="#8100FF"/>
<stop offset="1" stop-color="#0A0A32"/>
</linearGradient>
<clipPath id="clip0_24_2384">
<rect width="234.93" height="32.39" fill="white" transform="translate(0.0649414 0.804688)"/>
</clipPath>
</defs>
</svg>
